<svg width="20.000000" height="18.937195" viewBox="0 0 20 18.9372" fill="none" xmlns="http://www.w3.org/2000/svg" xmlns:xlink="http://www.w3.org/1999/xlink">
	<desc>
			Created with Pixso.
	</desc>
	<defs/>
	<path id="Vector" d="M18.8 6.69C18.41 6.63 18.04 6.49 17.72 6.27C17.39 6.05 17.12 5.76 16.92 5.42C16.72 5.08 16.6 4.7 16.57 4.3C16.54 3.91 16.6 3.52 16.74 3.15C16.83 2.91 16.85 2.65 16.78 2.4C16.71 2.16 16.57 1.94 16.37 1.77C15.5 1.04 14.51 0.46 13.44 0.07C13.2 -0.02 12.93 -0.03 12.68 0.04C12.43 0.11 12.21 0.26 12.05 0.46C11.8 0.77 11.49 1.02 11.14 1.2C10.78 1.37 10.39 1.46 10 1.46C9.6 1.46 9.21 1.37 8.85 1.2C8.5 1.02 8.19 0.77 7.94 0.46C7.78 0.26 7.56 0.11 7.31 0.04C7.06 -0.03 6.79 -0.02 6.55 0.07C5.56 0.43 4.64 0.95 3.82 1.61C3.61 1.77 3.46 2 3.39 2.25C3.32 2.51 3.33 2.78 3.43 3.03C3.58 3.4 3.65 3.81 3.61 4.21C3.58 4.62 3.46 5.01 3.25 5.36C3.03 5.71 2.75 6 2.4 6.21C2.06 6.43 1.67 6.56 1.26 6.6C1 6.63 0.75 6.74 0.56 6.92C0.36 7.1 0.23 7.33 0.18 7.59C0.06 8.21 0 8.83 0 9.46C-0.01 9.98 0.04 10.51 0.12 11.03C0.16 11.29 0.29 11.54 0.49 11.73C0.69 11.91 0.94 12.03 1.21 12.06C1.62 12.1 2.02 12.23 2.37 12.46C2.72 12.68 3.01 12.99 3.22 13.35C3.42 13.71 3.54 14.11 3.56 14.53C3.58 14.94 3.5 15.35 3.33 15.73C3.21 15.98 3.19 16.25 3.25 16.52C3.31 16.78 3.46 17.02 3.67 17.19C4.54 17.9 5.52 18.47 6.58 18.86C6.71 18.91 6.85 18.93 7 18.93C7.19 18.93 7.38 18.88 7.56 18.79C7.73 18.7 7.88 18.57 8 18.41C8.23 18.07 8.55 17.78 8.92 17.59C9.29 17.39 9.71 17.29 10.13 17.29C10.54 17.29 10.94 17.39 11.3 17.57C11.66 17.75 11.98 18.02 12.22 18.35C12.38 18.56 12.61 18.72 12.87 18.79C13.13 18.87 13.41 18.85 13.66 18.75C14.63 18.36 15.53 17.83 16.33 17.16C16.53 16.99 16.67 16.77 16.74 16.51C16.8 16.26 16.78 15.99 16.69 15.75C16.53 15.38 16.46 14.98 16.49 14.58C16.51 14.17 16.63 13.78 16.84 13.43C17.04 13.09 17.32 12.79 17.65 12.57C17.99 12.35 18.37 12.21 18.78 12.16C19.03 12.12 19.28 12.01 19.46 11.82C19.65 11.64 19.78 11.4 19.82 11.15C19.93 10.59 19.99 10.03 20 9.46C20 8.86 19.94 8.27 19.83 7.68C19.78 7.43 19.66 7.19 19.48 7.02C19.29 6.84 19.06 6.72 18.8 6.69ZM13.33 9.46C13.33 10.12 13.13 10.76 12.77 11.31C12.4 11.86 11.88 12.29 11.27 12.54C10.66 12.79 9.99 12.86 9.34 12.73C8.7 12.6 8.1 12.28 7.64 11.82C7.17 11.35 6.85 10.76 6.73 10.11C6.6 9.46 6.66 8.79 6.92 8.18C7.17 7.57 7.59 7.05 8.14 6.69C8.69 6.32 9.34 6.13 10 6.13C10.88 6.13 11.73 6.48 12.35 7.1C12.98 7.73 13.33 8.57 13.33 9.46Z" fill="#051F61" fill-opacity="1.000000" fill-rule="nonzero"/>
</svg>
