<svg width="20.000000" height="19.999908" viewBox="0 0 20 19.9999" fill="none" xmlns="http://www.w3.org/2000/svg" xmlns:xlink="http://www.w3.org/1999/xlink">
	<desc>
			Created with Pixso.
	</desc>
	<defs/>
	<path id="Vector" d="M8.33 19.99C9.84 19.99 11.1 18.92 11.39 17.49L5.27 17.49C5.56 18.92 6.82 19.99 8.33 19.99Z" fill="#051F61" fill-opacity="1.000000" fill-rule="nonzero"/>
	<path id="Vector" d="M14.64 12.08C14.62 12.08 14.6 12.08 14.58 12.08C10.9 12.08 7.91 9.09 7.91 5.41C7.91 3.97 8.38 2.63 9.16 1.54L9.16 0.83C9.16 0.37 8.79 0 8.33 0C7.87 0 7.5 0.37 7.5 0.83L7.5 1.73C4.67 2.13 2.5 4.56 2.5 7.5L2.5 9.82C2.5 11.47 1.77 13.02 0.51 14.1C0.18 14.37 0 14.78 0 15.2C0 16.01 0.65 16.66 1.45 16.66L15.2 16.66C16.01 16.66 16.66 16.01 16.66 15.2C16.66 14.78 16.48 14.37 16.14 14.09C15.49 13.53 14.98 12.84 14.64 12.08Z" fill="#051F61" fill-opacity="1.000000" fill-rule="nonzero"/>
	<path id="Vector" d="M14.58 0C11.59 0 9.16 2.43 9.16 5.41C9.16 8.4 11.59 10.83 14.58 10.83C17.56 10.83 20 8.4 20 5.41C20 2.42 17.56 0 14.58 0ZM15.41 7.29C15.41 7.63 15.13 7.91 14.79 7.91C14.44 7.91 14.16 7.63 14.16 7.29L14.16 4.58L13.75 4.58C13.4 4.58 13.12 4.3 13.12 3.95C13.12 3.61 13.4 3.33 13.75 3.33L14.79 3.33C15.13 3.33 15.41 3.61 15.41 3.95L15.41 7.29Z" fill="#EB5757" fill-opacity="1.000000" fill-rule="nonzero"/>
</svg>
