<svg width="23.000000" height="20.000000" viewBox="0 0 23 20" fill="none" xmlns="http://www.w3.org/2000/svg" xmlns:xlink="http://www.w3.org/1999/xlink">
	<desc>
			Created with Pixso.
	</desc>
	<defs>
		<clipPath id="clip21_398">
			<rect id="share (3)" width="23.000000" height="20.000000" fill="white" fill-opacity="0"/>
		</clipPath>
	</defs>
	<rect id="share (3)" width="23.000000" height="20.000000" fill="#FFFFFF" fill-opacity="0"/>
	<g clip-path="url(#clip21_398)">
		<path id="Vector" d="M21.3 3.33C21.3 4.82 19.91 6.04 18.19 6.04C16.47 6.04 15.07 4.82 15.07 3.33C15.07 1.83 16.47 0.62 18.19 0.62C19.91 0.62 21.3 1.83 21.3 3.33Z" fill="#757897" fill-opacity="0.500000" fill-rule="nonzero"/>
		<path id="Vector" d="M18.19 6.66C16.07 6.66 14.36 5.17 14.36 3.33C14.36 1.49 16.07 0 18.19 0C20.3 0 22.02 1.49 22.02 3.33C22.02 5.17 20.3 6.66 18.19 6.66ZM18.19 1.25C16.87 1.25 15.79 2.18 15.79 3.33C15.79 4.48 16.87 5.41 18.19 5.41C19.51 5.41 20.58 4.48 20.58 3.33C20.58 2.18 19.51 1.25 18.19 1.25Z" fill="#757897" fill-opacity="0.500000" fill-rule="nonzero"/>
		<path id="Vector" d="M21.3 16.66C21.3 18.16 19.91 19.37 18.19 19.37C16.47 19.37 15.07 18.16 15.07 16.66C15.07 15.17 16.47 13.95 18.19 13.95C19.91 13.95 21.3 15.17 21.3 16.66Z" fill="#757897" fill-opacity="0.500000" fill-rule="nonzero"/>
		<path id="Vector" d="M18.19 20C16.07 20 14.36 18.5 14.36 16.66C14.36 14.82 16.07 13.33 18.19 13.33C20.3 13.33 22.02 14.82 22.02 16.66C22.02 18.5 20.3 20 18.19 20ZM18.19 14.58C16.87 14.58 15.79 15.51 15.79 16.66C15.79 17.81 16.87 18.75 18.19 18.75C19.51 18.75 20.58 17.81 20.58 16.66C20.58 15.51 19.51 14.58 18.19 14.58Z" fill="#757897" fill-opacity="0.500000" fill-rule="nonzero"/>
		<path id="Vector" d="M7.89 10C7.89 11.49 6.49 12.7 4.77 12.7C3.05 12.7 1.66 11.49 1.66 10C1.66 8.5 3.05 7.29 4.77 7.29C6.49 7.29 7.89 8.5 7.89 10Z" fill="#757897" fill-opacity="0.500000" fill-rule="nonzero"/>
		<path id="Vector" d="M4.77 13.33C2.66 13.33 0.94 11.83 0.94 10C0.94 8.16 2.66 6.66 4.77 6.66C6.89 6.66 8.61 8.16 8.61 10C8.61 11.83 6.89 13.33 4.77 13.33ZM4.77 7.91C3.45 7.91 2.38 8.85 2.38 10C2.38 11.14 3.45 12.08 4.77 12.08C6.09 12.08 7.17 11.14 7.17 10C7.17 8.85 6.09 7.91 4.77 7.91Z" fill="#757897" fill-opacity="0.500000" fill-rule="nonzero"/>
		<path id="Vector" d="M7.03 9.6C6.7 9.6 6.38 9.44 6.2 9.17C5.94 8.78 6.1 8.27 6.56 8.04L15.45 3.63C15.91 3.4 16.5 3.54 16.76 3.94C17.02 4.34 16.86 4.85 16.4 5.08L7.51 9.49C7.36 9.56 7.2 9.6 7.03 9.6Z" fill="#757897" fill-opacity="0.500000" fill-rule="nonzero"/>
		<path id="Vector" d="M15.93 16.47C15.76 16.47 15.6 16.44 15.45 16.36L6.56 11.95C6.1 11.73 5.94 11.22 6.2 10.82C6.46 10.42 7.05 10.28 7.51 10.5L16.4 14.91C16.86 15.14 17.02 15.65 16.76 16.05C16.58 16.32 16.26 16.47 15.93 16.47Z" fill="#757897" fill-opacity="0.500000" fill-rule="nonzero"/>
	</g>
</svg>
